<?xml version="1.0" encoding="iso-8859-1"?>
<!-- Uploaded to: SVG Repo, www.svgrepo.com, Generator: SVG Repo Mixer Tools -->
<svg height="800px" width="800px" version="1.1" id="Layer_1" xmlns="http://www.w3.org/2000/svg" xmlns:xlink="http://www.w3.org/1999/xlink" 
	 viewBox="0 0 512.853 512.853" xml:space="preserve">
<g transform="translate(1)">
	<path style="fill:#FFDD09;" d="M494.787,15.787c-10.24-10.24-26.453-10.24-35.84,0l-131.413,138.24h64L494.787,52.48
		C505.027,42.24,505.027,26.027,494.787,15.787"/>
	<path style="fill:#FD9808;" d="M400.067,503.893H280.6c-18.773,0-34.133-15.36-34.133-34.133V154.027H434.2V469.76
		C434.2,488.533,418.84,503.893,400.067,503.893"/>
	<path style="fill:#FFFFFF;" d="M229.4,503.893H109.933c-18.773,0-34.133-15.36-34.133-34.133V154.027h187.733V469.76
		C263.533,488.533,248.173,503.893,229.4,503.893"/>
	<path style="fill:#FFDD09;" d="M374.467,503.893H135.533c-18.773,0-34.133-15.36-34.133-34.133V154.027h307.2V469.76
		C408.6,488.533,393.24,503.893,374.467,503.893"/>
	<g>
		<path style="fill:#1CD759;" d="M135.533,222.293h-17.067c-5.12,0-8.533-3.413-8.533-8.533v-17.067c0-5.12,3.413-8.533,8.533-8.533
			h17.067c5.12,0,8.533,3.413,8.533,8.533v17.067C144.067,218.88,140.653,222.293,135.533,222.293"/>
		<path style="fill:#1CD759;" d="M135.533,469.76h-17.067c-5.12,0-8.533-3.413-8.533-8.533V444.16c0-5.12,3.413-8.533,8.533-8.533
			h17.067c5.12,0,8.533,3.413,8.533,8.533v17.067C144.067,466.347,140.653,469.76,135.533,469.76"/>
		<path style="fill:#1CD759;" d="M391.533,469.76h-17.067c-5.12,0-8.533-3.413-8.533-8.533V444.16c0-5.12,3.413-8.533,8.533-8.533
			h17.067c5.12,0,8.533,3.413,8.533,8.533v17.067C400.067,466.347,396.653,469.76,391.533,469.76"/>
		<path style="fill:#1CD759;" d="M391.533,222.293h-17.067c-5.12,0-8.533-3.413-8.533-8.533v-17.067c0-5.12,3.413-8.533,8.533-8.533
			h17.067c5.12,0,8.533,3.413,8.533,8.533v17.067C400.067,218.88,396.653,222.293,391.533,222.293"/>
	</g>
	<path d="M400.067,512.427H109.933c-23.893,0-42.667-18.773-42.667-42.667V154.027c0-5.12,3.413-8.533,8.533-8.533h358.4
		c5.12,0,8.533,3.413,8.533,8.533V469.76C442.733,493.653,423.96,512.427,400.067,512.427z M84.333,162.56v307.2
		c0,14.507,11.093,25.6,25.6,25.6h290.133c14.507,0,25.6-11.093,25.6-25.6v-307.2H84.333z"/>
	<path d="M476.867,316.16H434.2c-5.12,0-8.533-3.413-8.533-8.533v-102.4c0-5.12,3.413-8.533,8.533-8.533h42.667
		c18.773,0,34.133,15.36,34.133,34.133v51.2C511,300.8,495.64,316.16,476.867,316.16z M442.733,299.093h34.133
		c9.387,0,17.067-7.68,17.067-17.067v-51.2c0-9.387-7.68-17.067-17.067-17.067h-34.133V299.093z"/>
	<path d="M75.8,316.16H33.133C14.36,316.16-1,300.8-1,282.027v-51.2c0-18.773,15.36-34.133,34.133-34.133H75.8
		c5.12,0,8.533,3.413,8.533,8.533v102.4C84.333,312.747,80.92,316.16,75.8,316.16z M33.133,213.76
		c-9.387,0-17.067,7.68-17.067,17.067v51.2c0,9.387,7.68,17.067,17.067,17.067h34.133V213.76H33.133z"/>
	<path d="M451.267,162.56H58.733c-5.12,0-8.533-3.413-8.533-8.533c0-5.12,3.413-8.533,8.533-8.533h392.533
		c5.12,0,8.533,3.413,8.533,8.533C459.8,159.147,456.387,162.56,451.267,162.56z"/>
	<path d="M390.68,162.56h-64c-3.413,0-6.827-1.707-7.68-5.12c-1.707-3.413-0.853-6.827,1.707-9.387L452.973,10.667
		c13.653-13.653,34.987-13.653,48.64,0s13.653,34.987,0,48.64L396.653,160C395.8,161.707,393.24,162.56,390.68,162.56z
		 M347.16,145.493h40.107l101.547-98.987c6.827-6.827,6.827-17.92,0-23.893c-6.827-6.827-17.067-6.827-23.893,0L347.16,145.493z"/>
	<path d="M171.373,128.427c-1.707,0-2.56,0-4.267-0.853c-14.507-7.68-23.04-18.773-23.04-32.427
		c-0.853-13.653,7.68-27.307,23.04-37.547c7.68-5.973,11.947-14.507,11.093-22.187s-5.12-14.507-12.8-18.773
		c-4.267-2.56-5.12-7.68-3.413-11.947c2.56-4.267,7.68-5.12,11.947-3.413c12.8,7.68,20.48,19.627,21.333,32.427
		c0.853,14.507-5.973,28.16-18.773,37.547c-10.24,7.68-15.36,15.36-15.36,23.04c0,6.827,5.12,13.653,14.507,17.92
		c4.267,2.56,5.973,7.68,3.413,11.947C177.347,126.72,174.787,128.427,171.373,128.427z"/>
	<path d="M273.773,128.427c-1.707,0-2.56,0-4.267-0.853c-14.507-7.68-23.04-18.773-23.04-32.427
		c-0.853-13.653,7.68-27.307,23.04-37.547c7.68-5.973,11.947-14.507,11.093-22.187s-5.12-14.507-12.8-18.773
		c-4.267-2.56-5.12-7.68-3.413-11.947c2.56-4.267,7.68-5.12,11.947-3.413c12.8,7.68,20.48,19.627,21.333,32.427
		c0.853,14.507-5.973,28.16-18.773,37.547c-10.24,7.68-15.36,15.36-15.36,23.04c0,6.827,5.12,13.653,14.507,17.92
		c4.267,2.56,5.973,7.68,3.413,11.947C279.747,126.72,277.187,128.427,273.773,128.427z"/>
	<path d="M135.533,230.827h-17.067c-9.387,0-17.067-7.68-17.067-17.067v-17.067c0-9.387,7.68-17.067,17.067-17.067h17.067
		c9.387,0,17.067,7.68,17.067,17.067v17.067C152.6,223.147,144.92,230.827,135.533,230.827z M135.533,213.76v8.533V213.76
		L135.533,213.76z M118.467,196.693v17.067h17.067v-17.067H118.467z"/>
	<path d="M135.533,478.293h-17.067c-9.387,0-17.067-7.68-17.067-17.067V444.16c0-9.387,7.68-17.067,17.067-17.067h17.067
		c9.387,0,17.067,7.68,17.067,17.067v17.067C152.6,470.613,144.92,478.293,135.533,478.293z M135.533,461.227v8.533V461.227
		L135.533,461.227z M118.467,444.16v17.067h17.067V444.16H118.467z"/>
	<path d="M391.533,478.293h-17.067c-9.387,0-17.067-7.68-17.067-17.067V444.16c0-9.387,7.68-17.067,17.067-17.067h17.067
		c9.387,0,17.067,7.68,17.067,17.067v17.067C408.6,470.613,400.92,478.293,391.533,478.293z M391.533,461.227v8.533V461.227
		L391.533,461.227z M374.467,444.16v17.067h17.067V444.16H374.467z"/>
	<path d="M391.533,230.827h-17.067c-9.387,0-17.067-7.68-17.067-17.067v-17.067c0-9.387,7.68-17.067,17.067-17.067h17.067
		c9.387,0,17.067,7.68,17.067,17.067v17.067C408.6,223.147,400.92,230.827,391.533,230.827z M391.533,213.76v8.533V213.76
		L391.533,213.76z M374.467,196.693v17.067h17.067v-17.067H374.467z"/>
</g>
</svg>